<svg width="29" height="19" viewBox="0 0 29 19" fill="none" xmlns="http://www.w3.org/2000/svg">
<path d="M0.142578 14.4414C0.142578 16.7896 1.67867 18.2666 3.91937 18.2666C5.17868 18.2666 6.32737 17.7325 7.18844 16.7234L8.90754 14.7168C9.15544 14.4327 9.41077 14.2964 9.70958 14.2964H18.8813C19.1801 14.2964 19.4354 14.4327 19.6833 14.7168L21.4042 16.7234C22.2653 17.7308 23.4122 18.2666 24.6715 18.2666C26.9122 18.2666 28.4483 16.7896 28.4483 14.4414C28.4483 13.4291 28.2294 12.2804 27.8452 11.0085C27.2501 9.01388 26.2136 6.30877 25.2289 4.22686C24.3903 2.47395 23.9335 1.61655 21.8136 1.13669C19.9555 0.71215 17.4036 0.435181 14.3003 0.435181C11.1952 0.435181 8.63538 0.71215 6.77725 1.13669C4.65743 1.61655 4.20059 2.47395 3.36369 4.22686C2.37902 6.30877 1.34077 9.01388 0.747383 11.0085C0.363264 12.2804 0.142578 13.4291 0.142578 14.4414ZM1.92855 14.4333C1.92855 13.8415 2.05872 13.1326 2.35947 12.1081C3.01264 9.86643 4.13095 6.98456 5.10596 4.86126C5.57286 3.84215 5.83049 3.26404 6.98671 2.99481C8.75974 2.57201 11.253 2.302 14.3003 2.302C17.3396 2.302 19.8311 2.57201 21.6042 2.99481C22.7604 3.26404 23.0101 3.84215 23.4849 4.86126C24.4741 6.98456 25.5545 9.87435 26.2314 12.1081C26.5401 13.1326 26.6641 13.8415 26.6641 14.4333C26.6641 15.6809 25.7869 16.4525 24.6282 16.4525C23.9315 16.4525 23.242 16.0918 22.6898 15.4435L20.762 13.2378C20.2909 12.6909 19.9058 12.4295 19.0569 12.4295H9.53397C8.68679 12.4295 8.29999 12.6909 7.82884 13.2378L5.90108 15.4435C5.35237 16.0935 4.65937 16.4525 3.96269 16.4525C2.80395 16.4525 1.92855 15.6809 1.92855 14.4333Z" fill="white"/>
<path d="M6.40625 7.4601C6.40625 7.99953 6.73912 8.33684 7.28203 8.33684H8.91653V9.91605C8.91653 10.4562 9.23532 10.8005 9.76586 10.8005C10.2868 10.8005 10.6134 10.4562 10.6134 9.91605V8.33684H12.1467C12.7318 8.33684 13.084 7.99953 13.084 7.4601C13.084 6.93653 12.7318 6.60889 12.1467 6.60889H10.6134V5.02792C10.6134 4.48946 10.2868 4.15137 9.76586 4.15137C9.23532 4.15137 8.91653 4.48946 8.91653 5.02792V6.60889H7.28203C6.73912 6.60889 6.40625 6.93653 6.40625 7.4601ZM20.3338 7.36571C21.1459 7.36571 21.7629 6.75046 21.7629 5.94625C21.7629 5.13236 21.1459 4.50745 20.3338 4.50745C19.5375 4.50745 18.9029 5.13236 18.9029 5.94625C18.9029 6.75046 19.5375 7.36571 20.3338 7.36571ZM17.4627 10.2744C18.2687 10.2744 18.8936 9.64958 18.8936 8.84704C18.8936 8.03319 18.2687 7.40826 17.4627 7.40826C16.6682 7.40826 16.0336 8.03319 16.0336 8.84704C16.0336 9.64958 16.6682 10.2744 17.4627 10.2744Z" fill="white"/>
</svg>
