<svg width="25" height="24" viewBox="0 0 25 24" fill="none" xmlns="http://www.w3.org/2000/svg">
<path d="M9.97924 20.3602H15.5435V13.3756C15.5435 12.9238 15.2517 12.6302 14.7999 12.6302H10.7343C10.2746 12.6302 9.97924 12.9238 9.97924 13.3756V20.3602ZM6.19451 21.6191H19.2807C20.7428 21.6191 21.6045 20.7749 21.6045 19.3496V8.6339L19.7099 7.33514V18.7703C19.7099 19.3833 19.3767 19.7245 18.7813 19.7245H6.6939C6.09064 19.7245 5.75739 19.3833 5.75739 18.7703V7.34307L3.86272 8.6339V19.3496C3.86272 20.7749 4.72283 21.6191 6.19451 21.6191ZM0.960938 10.7007C0.960938 11.1999 1.33654 11.6258 1.94928 11.6258C2.24965 11.6258 2.51733 11.4703 2.75348 11.2763L12.359 3.21734C12.6188 2.98737 12.9233 2.98737 13.1849 3.21734L22.7852 11.2763C23.0151 11.4703 23.2828 11.6258 23.5832 11.6258C24.1387 11.6258 24.5636 11.2809 24.5636 10.7245C24.5636 10.3979 24.4373 10.1453 24.1925 9.93638L14.127 1.47624C13.3 0.776474 12.2519 0.776474 11.4169 1.47624L1.34003 9.93812C1.08724 10.147 0.960938 10.4313 0.960938 10.7007ZM18.8726 6.01722L21.6045 8.31632V3.64828C21.6045 3.21233 21.3269 2.93459 20.8909 2.93459H19.588C19.16 2.93459 18.8726 3.21233 18.8726 3.64828V6.01722Z" fill="white"/>
</svg>
