<svg width="27" height="26" viewBox="0 0 27 26" fill="none" xmlns="http://www.w3.org/2000/svg">
<path d="M3.78773 23.3058H22.8098C25.32 23.3058 26.5976 22.0378 26.5976 19.5565V8.08874C26.5976 5.59991 25.32 4.34156 22.8098 4.34156H3.78773C1.28718 4.34156 0 5.59991 0 8.08874V19.5565C0 22.0378 1.28718 23.3058 3.78773 23.3058ZM3.87444 21.0933C2.84413 21.0933 2.29592 20.5547 2.29592 19.4859V8.16139C2.29592 7.08303 2.84413 6.55404 3.87444 6.55404H22.7252C23.7534 6.55404 24.3016 7.08303 24.3016 8.16139V19.4859C24.3016 20.5547 23.7534 21.0933 22.7252 21.0933H3.87444ZM1.09078 11.5277C4.74046 12.7931 8.89898 13.4386 13.3036 13.4386C17.6986 13.4386 21.8571 12.7931 25.5068 11.5277V9.23061C21.9834 10.6397 17.8408 11.3543 13.3036 11.3543C8.75882 11.3543 4.61414 10.6397 1.09078 9.23061V11.5277ZM11.4712 15.6112H15.1263C16.0364 15.6112 16.5431 15.1268 16.5431 14.2432V12.2414H10.0662V14.2432C10.0662 15.1268 10.5708 15.6112 11.4712 15.6112ZM7.16812 5.29781H9.29249V3.27421C9.29249 2.4321 9.77225 1.96194 10.6336 1.96194H15.964C16.8253 1.96194 17.3147 2.43421 17.3147 3.27421V5.27859H19.439V3.27445C19.439 1.05867 18.243 0 16.0355 0H10.5558C8.45812 0 7.16812 1.05867 7.16812 3.27445V5.29781Z" fill="white"/>
</svg>
