<svg width="29" height="29" viewBox="0 0 29 29" fill="none" xmlns="http://www.w3.org/2000/svg">
<path d="M14.4856 28.6586C22.3361 28.6586 28.8174 22.1685 28.8174 14.3293C28.8174 6.47881 22.3247 0 14.4742 0C6.63756 0 0.15625 6.47881 0.15625 14.3293C0.15625 22.1685 6.64894 28.6586 14.4856 28.6586ZM14.4856 25.836C8.10023 25.836 2.99029 20.7146 2.99029 14.3293C2.99029 7.94398 8.08885 2.82268 14.4742 2.82268C20.8595 2.82268 25.9947 7.94398 25.9947 14.3293C25.9947 20.7146 20.8708 25.836 14.4856 25.836ZM23.7343 23.481L23.6852 23.251C22.8133 21.2143 19.3283 19.1107 14.4856 19.1107C9.65667 19.1107 6.16922 21.2143 5.28835 23.2397L5.23924 23.481C7.84858 25.8828 11.8379 27.2057 14.4856 27.2057C17.1471 27.2057 21.1023 25.8942 23.7343 23.481ZM14.4856 16.8249C17.1779 16.8476 19.2637 14.5577 19.2637 11.5826C19.2637 8.78296 17.1614 6.44884 14.4856 6.44884C11.8121 6.44884 9.69608 8.78296 9.70995 11.5826C9.72133 14.5577 11.8071 16.8022 14.4856 16.8249Z" fill="white"/>
</svg>
