<svg width="43" height="20" viewBox="0 0 43 20" fill="none" xmlns="http://www.w3.org/2000/svg">
<path d="M8.69507 9.59771C11.1565 9.59771 13.1686 7.42154 13.1686 4.7492C13.1686 2.11084 11.1673 0.00732422 8.69507 0.00732422C6.23039 0.00732422 4.20562 2.14178 4.21945 4.75881C4.22156 7.44076 6.23156 9.59771 8.69507 9.59771ZM8.69507 7.81248C7.28601 7.81248 6.09538 6.49482 6.09327 4.7567C6.08155 3.0781 7.27312 1.79255 8.69507 1.79255C10.117 1.79255 11.2948 3.04716 11.2948 4.7492C11.2948 6.4756 10.1159 7.81248 8.69507 7.81248ZM2.59382 19.0951H14.7846C16.5213 19.0951 17.3784 18.5159 17.3784 17.3237C17.3784 14.5297 14.1394 10.7767 8.68546 10.7767C3.23906 10.7767 0 14.5297 0 17.3237C0 18.5159 0.847498 19.0951 2.59382 19.0951ZM2.26522 17.3099C2.05944 17.3099 1.96663 17.2236 1.96663 17.0476C1.96663 15.4848 4.20936 12.564 8.68546 12.564C13.1595 12.564 15.4022 15.4848 15.4022 17.0476C15.4022 17.2236 15.3094 17.3099 15.1132 17.3099H2.26522ZM33.6183 9.59771C36.0818 9.59771 38.0939 7.42154 38.0939 4.7492C38.0939 2.11084 36.0905 0.00732422 33.6183 0.00732422C31.1557 0.00732422 29.1309 2.14178 29.1427 4.75881C29.1448 7.44076 31.1548 9.59771 33.6183 9.59771ZM33.6183 7.81248C32.2092 7.81248 31.0207 6.49482 31.0186 4.7567C31.0048 3.0781 32.1963 1.79255 33.6183 1.79255C35.0423 1.79255 36.218 3.04716 36.218 4.7492C36.218 6.4756 35.0391 7.81248 33.6183 7.81248ZM27.5191 19.0951H39.7078C41.4466 19.0951 42.3016 18.5159 42.3016 17.3237C42.3016 14.5297 39.0626 10.7767 33.6087 10.7767C28.1644 10.7767 24.9232 14.5297 24.9232 17.3237C24.9232 18.5159 25.7707 19.0951 27.5191 19.0951ZM27.1884 17.3099C26.9826 17.3099 26.8898 17.2236 26.8898 17.0476C26.8898 15.4848 29.1422 12.564 33.6087 12.564C38.0848 12.564 40.3275 15.4848 40.3275 17.0476C40.3275 17.2236 40.2347 17.3099 40.0385 17.3099H27.1884Z" fill="white"/>
<path d="M16.5338 10.2591C17.4348 10.2591 18.1536 9.54023 18.1536 8.63929C18.1536 7.75007 17.4348 7.03125 16.5338 7.03125C15.6446 7.03125 14.9258 7.75007 14.9258 8.63929C14.9258 9.54023 15.6446 10.2591 16.5338 10.2591ZM21.152 10.2591C22.0412 10.2591 22.76 9.54023 22.76 8.63929C22.76 7.75007 22.0412 7.03125 21.152 7.03125C20.251 7.03125 19.5418 7.75007 19.5418 8.63929C19.5418 9.54023 20.251 10.2591 21.152 10.2591ZM25.7467 10.2591C26.6455 10.2591 27.3643 9.54023 27.3643 8.63929C27.3643 7.75007 26.6455 7.03125 25.7467 7.03125C24.8553 7.03125 24.1365 7.75007 24.1365 8.63929C24.1365 9.54023 24.8553 10.2591 25.7467 10.2591Z" fill="white"/>
</svg>
