<svg width="40" height="40" viewBox="0 0 40 40" fill="none" xmlns="http://www.w3.org/2000/svg">
<path d="M19.9983 40C30.9547 40 40.0001 30.9546 40.0001 19.9982C40.0001 9.06134 30.9388 0 19.9824 0C9.04546 0 0 9.06134 0 19.9982C0 30.9546 9.06134 40 19.9983 40Z" fill="#BDBDBD" fill-opacity="0.3"/>
<path d="M14.7828 27.096L25.4774 16.4057L23.6507 14.5711L12.9482 25.2692L12.0217 27.4988C11.9172 27.782 12.21 28.0863 12.4812 27.9774L14.7828 27.096ZM26.3888 15.51L27.4186 14.4975C27.9297 13.9863 27.9505 13.42 27.4896 12.9496L27.118 12.5763C26.6571 12.1137 26.0873 12.163 25.5745 12.6568L24.5464 13.6754L26.3888 15.51Z" fill="black"/>
</svg>
