<svg width="23" height="22" viewBox="0 0 23 22" fill="none" xmlns="http://www.w3.org/2000/svg">
<path d="M4.38528 21.5171C5.72564 21.5171 8.43831 20.2159 10.478 18.7561C17.302 18.8825 22.3929 14.9463 22.3929 9.78312C22.3929 4.79691 17.4162 0.776611 11.1983 0.776611C4.97868 0.776611 0.00195312 4.79691 0.00195312 9.78312C0.00195312 12.9551 1.98232 15.7936 5.01215 17.2648C4.59611 18.0486 3.8534 19.1358 3.43041 19.6925C2.82039 20.5017 3.24299 21.5171 4.38528 21.5171ZM5.53996 19.5602C5.42256 19.6049 5.37788 19.5381 5.45583 19.4339C5.95039 18.8223 6.69271 17.8583 7.04588 17.1994C7.33581 16.6617 7.23504 16.1959 6.61264 15.9006C3.65611 14.5166 1.94497 12.305 1.94497 9.78312C1.94497 5.88601 6.05019 2.71171 11.1983 2.71171C16.3526 2.71171 20.4578 5.88601 20.4578 9.78312C20.4578 13.6723 16.3526 16.8466 11.1983 16.8466C11.0188 16.8466 10.7504 16.8387 10.4088 16.8308C9.9956 16.8308 9.68441 16.9513 9.29952 17.257C8.13441 18.1177 6.40259 19.2111 5.53996 19.5602Z" fill="white"/>
</svg>
