<svg width="20" height="22" viewBox="0 0 20 22" fill="none" xmlns="http://www.w3.org/2000/svg">
<path d="M0.771484 16.141C0.771484 16.9602 1.38267 17.5009 2.38842 17.5009H6.36849C6.44586 19.3604 7.95661 21.0487 10.1486 21.0487C12.3502 21.0487 13.8609 19.3684 13.9383 17.5009H17.9184C18.9162 17.5009 19.5353 16.9602 19.5353 16.141C19.5353 15.113 18.5872 14.2322 17.719 13.3872C17.0371 12.7217 16.8719 11.3884 16.7475 10.057C16.6206 6.39296 15.5593 3.9488 13.0304 3.03781C12.6616 1.74832 11.5938 0.776611 10.1486 0.776611C8.71305 0.776611 7.63728 1.74832 7.27637 3.03781C4.74749 3.9488 3.68622 6.39296 3.55935 10.057C3.43499 11.3884 3.26962 12.7217 2.58784 13.3872C1.71167 14.2322 0.771484 15.113 0.771484 16.141ZM3.07928 15.7326V15.62C3.32646 15.3448 3.8893 14.8264 4.36432 14.2829C5.03102 13.5197 5.34416 12.1277 5.44512 10.2924C5.55381 6.36394 6.76053 5.05801 8.31848 4.63134C8.55329 4.57506 8.68868 4.46423 8.70705 4.19538C8.75173 3.214 9.30241 2.55155 10.1486 2.55155C11.0045 2.55155 11.5471 3.214 11.5998 4.19538C11.6181 4.46423 11.7456 4.57506 11.9804 4.63134C13.5463 5.05801 14.753 6.36394 14.8617 10.2924C14.9627 12.1277 15.281 13.5197 15.9346 14.2829C16.4157 14.8264 16.9515 15.3448 17.2005 15.62V15.7326H3.07928ZM8.19218 17.5009H12.1146C12.0408 18.7204 11.2509 19.4972 10.1486 19.4972C9.05599 19.4972 8.25814 18.7204 8.19218 17.5009Z" fill="white"/>
</svg>
