<svg width="28" height="28" viewBox="0 0 28 28" fill="none" xmlns="http://www.w3.org/2000/svg">
<path d="M13.8436 27.2493C21.2644 27.2493 25.6777 24.7507 25.6777 21.8941C25.6777 18.7455 20.835 16.7301 17.0492 16.5811V18.6358C19.6252 18.7469 23.03 19.9584 23.03 21.6572C23.03 23.6728 19.1527 25.0772 13.8436 25.0772C8.51537 25.0772 4.65733 23.692 4.65733 21.6572C4.65733 19.9584 8.05249 18.7469 10.6285 18.6358V16.5811C6.84266 16.7301 2 18.7455 2 21.8941C2 24.7507 6.42288 27.2493 13.8436 27.2493Z" fill="#00C6A2"/>
<path d="M9.21289 5.6521C9.21289 7.79475 10.6433 9.58912 12.6125 10.1223V17.5044C12.6125 20.6957 13.3327 22.6626 13.8395 22.6626C14.3558 22.6626 15.0643 20.7074 15.0643 17.5044V10.1223C17.0356 9.60084 18.4777 7.79475 18.4777 5.6521C18.4777 3.09554 16.4173 1 13.8395 1C11.2733 1 9.21289 3.09554 9.21289 5.6521Z" fill="#00C6A2"/>
<path d="M12.5274 5.91699C11.6884 5.91699 10.9473 5.178 10.9473 4.31551C10.9473 3.46262 11.6884 2.73535 12.5274 2.73535C13.4016 2.73535 14.1172 3.46262 14.1172 4.31551C14.1172 5.178 13.4016 5.91699 12.5274 5.91699Z" fill="white"/>
</svg>
