<svg width="28" height="28" viewBox="0 0 28 28" fill="none" xmlns="http://www.w3.org/2000/svg">
<path d="M4.84421 24.5736H23.7388C25.9853 24.5736 27.2905 23.2684 27.2905 20.7678V7.81765C27.2905 5.32672 25.9757 4.02148 23.4442 4.02148H4.5496C2.30523 4.02148 1 5.31711 1 7.81765V20.7678C1 23.278 2.31484 24.5736 4.84421 24.5736ZM4.83929 22.401C3.74757 22.401 3.15366 21.8389 3.15366 20.694V7.89148C3.15366 6.75827 3.74757 6.19413 4.83929 6.19413H23.4491C24.5237 6.19413 25.1369 6.75827 25.1369 7.90109V20.7036C25.1369 21.8389 24.5237 22.401 23.4491 22.401H4.83929ZM14.1634 17.485C15.0301 17.485 15.8587 17.124 16.7001 16.2943L26.1292 7.02288L24.727 5.6068L15.5055 14.7154C15.0163 15.2024 14.5951 15.4145 14.1634 15.4145C13.7221 15.4145 13.303 15.1928 12.8214 14.7154L3.56147 5.56836L2.1496 6.98234L11.6247 16.2943C12.4682 17.124 13.2871 17.485 14.1634 17.485ZM24.5802 22.817L25.9846 21.4009L18.4975 13.9906L17.091 15.395L24.5802 22.817ZM2.33265 21.4105L3.73912 22.8266L11.2358 15.395L9.82187 13.9906L2.33265 21.4105Z" fill="#00C6A2"/>
</svg>
