<svg width="28" height="28" viewBox="0 0 28 28" fill="none" xmlns="http://www.w3.org/2000/svg">
<path d="M8.39687 27.1132C9.04913 27.1132 9.53405 26.7938 10.3459 26.0808L14.3572 22.5295H21.4504C24.9784 22.5295 26.9547 20.5031 26.9547 17.0252V7.93691C26.9547 4.45903 24.9784 2.43262 21.4504 2.43262H6.50218C2.97625 2.43262 1 4.44942 1 7.93691V17.0252C1 20.5127 3.02476 22.5295 6.42836 22.5295H6.9107V25.4182C6.9107 26.4534 7.45422 27.1132 8.39687 27.1132ZM8.96593 24.5321V21.1864C8.96593 20.4987 8.67132 20.2336 8.01319 20.2336H6.56757C4.35225 20.2336 3.29592 19.1067 3.29592 16.9524V8.00019C3.29592 5.84581 4.35225 4.72854 6.56757 4.72854H21.3871C23.5928 4.72854 24.6588 5.84581 24.6588 8.00019V16.9524C24.6588 19.1067 23.5928 20.2336 21.3871 20.2336H14.2321C13.521 20.2336 13.1823 20.3485 12.6864 20.8498L8.96593 24.5321Z" fill="#00C6A2"/>
<path d="M8.27734 11.2556C8.27734 12.619 9.13046 13.6524 10.4505 13.6524C10.9764 13.6524 11.477 13.5471 11.788 13.1583H11.9176C11.5283 14.0909 10.6429 14.7373 9.78413 14.9492C9.37585 15.0579 9.23218 15.2496 9.23218 15.533C9.23218 15.8428 9.49304 16.0805 9.83171 16.0805C11.0786 16.0805 13.4026 14.5983 13.4026 11.7335C13.4026 10.0934 12.3608 8.83154 10.7762 8.83154C9.34468 8.83154 8.27734 9.83162 8.27734 11.2556ZM14.6329 11.2556C14.6329 12.619 15.4839 13.6524 16.806 13.6524C17.3319 13.6524 17.8304 13.5471 18.1414 13.1583H18.2732C17.8839 14.0909 16.9984 14.7373 16.1396 14.9492C15.7389 15.0579 15.5877 15.2496 15.5877 15.533C15.5877 15.8428 15.8464 16.0805 16.1851 16.0805C17.432 16.0805 19.7561 14.5983 19.7561 11.7335C19.7561 10.0934 18.7143 8.83154 17.1318 8.83154C15.6981 8.83154 14.6329 9.83162 14.6329 11.2556Z" fill="#00C6A2"/>
</svg>
