<svg width="27" height="26" viewBox="0 0 27 26" fill="none" xmlns="http://www.w3.org/2000/svg">
<g clip-path="url(#clip0_499_10454)">
<path d="M27 0H0V26H27V0Z" fill="white" fill-opacity="0.01"/>
<path d="M2.8125 19.3715C3.89748 19.9491 11.7514 24.3089 17.3362 20.9487C22.9209 17.5886 22.6128 11.7996 22.6128 9.14691C23.1187 8.1263 24.1875 7.60744 24.1875 4.84488C23.1377 5.77872 22.0943 6.09646 21.0572 5.79811C20.0411 4.30634 18.6432 3.64654 16.8634 3.81872C14.1937 4.07698 13.217 6.59918 13.5044 9.86229C9.38807 11.8668 6.16022 8.40916 4.49673 5.79811C3.94091 7.85444 3.40498 10.3232 4.49673 13.0542C5.22456 14.8749 6.97416 16.4141 9.74554 17.672C6.93692 19.1378 4.6259 19.7043 2.8125 19.3715Z" stroke="#00C6A2" stroke-width="2" stroke-linejoin="round"/>
</g>
<defs>
<clipPath id="clip0_499_10454">
<rect width="27" height="26" fill="white"/>
</clipPath>
</defs>
</svg>
